<?xml version="1.0" encoding="UTF-8"?>
<!-- Generator: visioncortex VTracer 0.6.4 -->
<svg version="1.1" xmlns="http://www.w3.org/2000/svg" width="1920" height="1080">
<path d="M0 0 C633.6 0 1267.2 0 1920 0 C1920 356.4 1920 712.8 1920 1080 C1286.4 1080 652.8 1080 0 1080 C0 723.6 0 367.2 0 0 Z " fill="#7AB496" transform="translate(0,0)"/>
<path d="M0 0 C1.09828125 -0.00257813 2.1965625 -0.00515625 3.328125 -0.0078125 C12.84533184 0.36157681 12.84533184 0.36157681 16.77734375 3.6796875 C17.76650376 4.76941462 18.7359249 5.87730345 19.6875 7 C20.20546143 7.58861816 20.72342285 8.17723633 21.25708008 8.78369141 C25.77468057 13.98858496 29.94667242 19.37418541 33.75 25.125 C34.13317383 25.70008301 34.51634766 26.27516602 34.91113281 26.86767578 C39.77628171 34.25484631 43.5864279 40.90474241 45.21484375 49.734375 C45.65478858 52.37168679 45.65478858 52.37168679 47.75 55.125 C47.75589969 57.45832587 47.754662 59.79167132 47.75 62.125 C48.22930488 65.34528602 48.92103816 68.50968643 49.625 71.6875 C49.79902344 72.51185547 49.97304688 73.33621094 50.15234375 74.18554688 C50.87749613 77.54541959 51.61912826 80.75952694 52.7800293 84.00146484 C54.51850443 89.59976608 54.44298558 95.36334326 54.6875 101.1875 C54.76806641 102.43466797 54.84863281 103.68183594 54.93164062 104.96679688 C55.27037224 113.00853642 54.23966998 118.90044566 50.84594727 126.22045898 C49.62756384 129.44948719 49.32261997 131.70383652 49.75 135.125 C52.64648765 137.05599176 54.1368398 137.53224541 57.4375 138.25 C62.55477164 139.57494748 66.96075598 141.58210135 71.625 144 C80.33821197 148.50679831 89.09313905 152.24941856 98.625 154.6875 C102.51407014 155.68498485 105.50432081 156.96414204 108.8828125 159.08984375 C112.07699682 160.86067815 115.53556069 161.91990742 118.9765625 163.1171875 C121.55170252 164.0529426 124.01275402 165.10399929 126.5 166.25 C129.16122554 167.47425828 131.4476937 168.30860361 134.3125 169.0625 C137.29539133 169.98448459 138.77592289 170.72426811 141.25 172.4375 C145.72116973 175.42417069 150.54301445 176.87859882 155.64648438 178.42504883 C160.56099754 179.93599754 160.56099754 179.93599754 162.75 182.125 C163.03875 183.23875 163.3275 184.3525 163.625 185.5 C164.43825308 189.16960048 164.43825308 189.16960048 166.9375 191.1875 C168.75 193.125 168.75 193.125 168.75 196.125 C167.62791163 199.49126511 166.50891697 200.93409535 163.75 203.125 C147.69354775 208.47715075 130.64185919 201.94023952 115.75 196.125 C114.78803711 195.75632812 113.82607422 195.38765625 112.83496094 195.0078125 C108.06711764 193.18038224 103.31367418 191.31970966 98.5703125 189.4296875 C73.36459433 178.60893596 73.36459433 178.60893596 46.75 173.125 C47.82380231 175.69187013 48.90854327 178.25314534 50 180.8125 C50.30035156 181.53373047 50.60070312 182.25496094 50.91015625 182.99804688 C51.21308594 183.70380859 51.51601563 184.40957031 51.828125 185.13671875 C52.10043945 185.78084717 52.37275391 186.42497559 52.65332031 187.08862305 C53.7489547 189.27832287 53.7489547 189.27832287 55.69970703 191.50585938 C57.85696865 194.26164678 59.11842265 196.80144167 60.4765625 200.01953125 C60.9509375 201.14037109 61.4253125 202.26121094 61.9140625 203.41601562 C62.39617187 204.57810547 62.87828125 205.74019531 63.375 206.9375 C63.86484375 208.08798828 64.3546875 209.23847656 64.859375 210.42382812 C72.44122462 228.49804614 72.44122462 228.49804614 70.75 237.125 C68.5 239.4375 68.5 239.4375 65.75 241.125 C65.1725 241.764375 64.595 242.40375 64 243.0625 C59.5219915 247.16734113 54.42117048 250.36938618 48.25 250.8125 C38.04540425 250.1062996 30.08277886 240.34052985 23.75 233.125 C21.18694817 229.57912379 18.93148243 225.91510872 16.75 222.125 C14.1228027 217.61538718 11.47166624 213.74126794 7.875 209.9375 C3.75968028 205.49850345 1.29625272 200.71643877 -1.21875 195.23828125 C-3.14991546 192.2783988 -4.18971204 191.33682078 -7.0078125 189.44921875 C-12.47337992 185.60133364 -15.29486882 180.3062267 -18.625 174.625 C-19.92893927 172.46932279 -21.23622524 170.31566634 -22.546875 168.1640625 C-23.17658203 167.12668945 -23.80628906 166.08931641 -24.45507812 165.02050781 C-30.38893258 155.44821267 -37.24617185 146.6281432 -44.6875 138.1875 C-45.8781906 136.8361379 -47.06515612 135.48149128 -48.25 134.125 C-48.68763672 133.63765381 -49.12527344 133.15030762 -49.57617188 132.64819336 C-53.77275637 127.89386122 -57.36336527 122.8376389 -60.875 117.5625 C-61.47965088 116.65717529 -62.08430176 115.75185059 -62.70727539 114.8190918 C-67.60570997 107.3609417 -71.96403689 99.67651004 -76.07861328 91.76147461 C-78.9441563 86.29319243 -82.11475567 81.28804025 -85.7800293 76.31616211 C-87.93675973 73.10130484 -88.69609242 70.99113433 -88.25 67.125 C-85.71889856 64.10950987 -82.76319605 61.88159802 -79.25 60.125 C-64.86956034 58.98724796 -64.86956034 58.98724796 -59.8671875 62.55859375 C-56.40251469 65.91447249 -53.49599246 69.71527347 -50.53613281 73.51269531 C-48.2547868 76.37260592 -45.83622886 79.11361402 -43.4375 81.875 C-41.36832159 84.28600523 -39.30830523 86.70471032 -37.25 89.125 C-36.72937988 89.7339209 -36.20875977 90.3428418 -35.67236328 90.97021484 C-29.53700591 98.19376583 -24.34782669 105.24920344 -20.1315918 113.75244141 C-17.40273309 119.15275449 -14.01931233 123.47891089 -10.03515625 128.05078125 C-6.85933136 131.74085349 -7.16123882 134.33189607 -7.25 139.125 C-4.28 140.115 -1.31 141.105 1.75 142.125 C0.91723706 135.03555757 -0.07420566 128.8121428 -3.26171875 122.40234375 C-4.37783936 119.83041365 -4.9232204 117.36749397 -5.5 114.625 C-6.75032918 109.16266804 -8.84720937 104.49189872 -11.3125 99.5 C-13.99401843 94.0699102 -16.02599753 89.21808689 -16.8984375 83.171875 C-17.45182064 79.9499554 -18.95988078 77.11807659 -20.25 74.125 C-21.10272069 71.02934101 -21.86394932 67.92181685 -22.6015625 64.796875 C-23.22939281 62.04754489 -23.22939281 62.04754489 -24.25 59.125 C-24.34570295 56.87399436 -24.38073924 54.6202257 -24.3828125 52.3671875 C-24.38376923 51.70470001 -24.38472595 51.04221252 -24.38571167 50.35964966 C-24.38639185 48.95591131 -24.38454887 47.5521698 -24.38037109 46.1484375 C-24.37507143 44.02857121 -24.38029493 41.90892176 -24.38671875 39.7890625 C-24.40328195 14.54749612 -24.40328195 14.54749612 -15.25 5.125 C-9.9758748 1.25013251 -6.49816851 -0.01511202 0 0 Z " fill="#FDFEFE" transform="translate(597.25,476.875)"/>
<path d="M0 0 C0.88945313 -0.03673828 1.77890625 -0.07347656 2.6953125 -0.11132812 C9.64496089 -0.15731845 13.33825441 1.90108029 18.375 6.5625 C19.00132324 7.11736084 19.62764648 7.67222168 20.27294922 8.24389648 C25.42657577 12.90695342 28.91763628 18.58581698 32.375 24.5625 C33.014375 25.655625 33.65375 26.74875 34.3125 27.875 C36.66905738 36.05364033 36.68733898 44.00674999 32.6875 51.625 C28.05056231 58.9453507 24.1251543 62.01964211 15.8984375 64.66796875 C13.17988343 65.5157632 13.17988343 65.5157632 10.375 67.5625 C8.32687244 68.27934465 6.2740631 68.98480929 4.203125 69.6328125 C2.12924369 70.31455801 0.07934279 71.07042196 -1.953125 71.8671875 C-13.73847194 76.30549901 -27.4968988 78.1975961 -39.625 73.5625 C-44.51147025 71.31828056 -48.69798729 68.55732264 -52.875 65.1875 C-55.75360924 62.95027315 -55.75360924 62.95027315 -59.3125 62.375 C-66.0130388 65.81581722 -68.89397363 72.18359293 -72.1875 78.625 C-72.67130127 79.5629541 -73.15510254 80.5009082 -73.65356445 81.46728516 C-81.36990599 96.32962906 -81.36990599 96.32962906 -80.625 112.5625 C-69.94971005 115.8674256 -56.78630442 113.18710218 -46.0625 111.5 C-44.61160136 111.27934959 -43.16067284 111.05889563 -41.7097168 110.83862305 C-30.0848642 109.04827622 -18.50586654 106.99687722 -6.9375 104.875 C-6.11740448 104.72497528 -5.29730896 104.57495056 -4.45236206 104.42037964 C-2.10924542 103.98947214 0.23269242 103.55274073 2.57421875 103.11328125 C3.2613797 102.98633881 3.94854065 102.85939636 4.65652466 102.72860718 C7.87347908 102.11647174 10.97836707 101.38660143 14.12426758 100.46948242 C17.375 99.5625 17.375 99.5625 21.1875 99.5 C26.27524716 98.92604764 29.00364347 95.64740446 32.5625 92.21875 C40.32913991 84.88359008 49.10386167 78.63138816 57.875 72.5625 C58.53322754 72.10568848 59.19145508 71.64887695 59.86962891 71.17822266 C64.42073144 68.07556808 68.88763231 65.14464989 74.3125 63.875 C79.25916464 64.98547574 81.43825249 68.63200459 84.375 72.5625 C85.3340625 73.7071875 85.3340625 73.7071875 86.3125 74.875 C89.44857681 82.80742958 87.2463867 90.65095139 84.015625 98.1953125 C76.30927077 114.01168713 64.26868163 126.83349029 50.375 137.5625 C48.68737149 139.2079378 47.0209651 140.87538577 45.375 142.5625 C44.58867188 143.33464844 43.80234375 144.10679687 42.9921875 144.90234375 C35.02156782 153.00382435 21.96375631 166.53490322 21.1875 178.4375 C21.249375 179.13875 21.31125 179.84 21.375 180.5625 C27.6947683 180.73211605 33.33758427 180.2445686 39.5 178.875 C40.32113281 178.69565918 41.14226562 178.51631836 41.98828125 178.33154297 C55.92023488 175.18065346 68.42127818 170.56137504 80.125 162.1875 C83.09915078 160.16932625 84.45910261 159.5484829 88.125 158.9375 C91.92176703 159.66764751 93.66074819 160.84824819 96.375 163.5625 C97.72939668 166.27129335 97.44001451 168.57183268 97.375 171.5625 C93.58852692 173.77127596 90.16615726 174.88886856 85.875 175.8125 C80.96219999 176.95841365 76.69629748 178.7227896 72.25 181.0625 C67.40424768 183.61120509 62.87660999 185.56904177 57.55859375 186.859375 C55.26074883 187.50465858 55.26074883 187.50465858 53.0078125 189.01171875 C50.00701068 190.77925335 47.1567055 191.66785196 43.8125 192.625 C40.10785712 193.69142321 36.80708746 194.83613937 33.375 196.5625 C23.29766664 199.7837004 14.12887656 201.61728248 4.40625 196.6875 C3.7359375 196.31625 3.065625 195.945 2.375 195.5625 C1.3025 194.985 0.23 194.4075 -0.875 193.8125 C-6.08631264 189.54869875 -8.87861997 184.00948882 -10.625 177.5625 C-11.60130885 167.12113379 -10.71054124 157.15880275 -8.4375 146.9375 C-8.1434729 145.58881836 -8.1434729 145.58881836 -7.84350586 144.21289062 C-5.63101228 135.0811565 -1.21169417 127.88591745 4.625 120.625 C7.78670681 116.78361929 7.78670681 116.78361929 10.375 112.5625 C2.90043875 113.20713281 2.90043875 113.20713281 -3.125 117.125 C-6.02697661 119.9544272 -6.51885203 119.82781914 -10.375 119.9375 C-15.83362954 120.17196462 -19.9022663 121.74362492 -24.8125 123.9375 C-31.76287747 127.0062068 -38.2081419 128.68133695 -45.69140625 129.8828125 C-53.36456129 131.20866054 -60.83954939 133.42040776 -68.2890625 135.66796875 C-72.38557379 136.76644777 -75.40956922 136.84829192 -79.625 136.5625 C-80.285 135.9025 -80.945 135.2425 -81.625 134.5625 C-83.09761719 134.32907144 -84.57901442 134.14953535 -86.0625 134 C-93.61033349 132.60874477 -99.52427908 127.65577973 -104.1015625 121.61328125 C-105.19569514 119.62129167 -105.93613433 117.72859982 -106.625 115.5625 C-106.91890625 114.66789063 -107.2128125 113.77328125 -107.515625 112.8515625 C-109.63479818 105.5115172 -110.6112347 98.17958929 -109.625 90.5625 C-107.6875 87.3125 -107.6875 87.3125 -105.625 84.5625 C-105.22007039 82.26101231 -105.06232355 79.99755028 -104.89453125 77.66796875 C-104.5219331 74.7573832 -103.3272865 72.91951208 -101.625 70.5625 C-100.8515625 69.20125 -100.8515625 69.20125 -100.0625 67.8125 C-98.625 65.5625 -98.625 65.5625 -96.625 64.5625 C-96.41875 63.49 -96.2125 62.4175 -96 61.3125 C-93.82403511 51.60839851 -86.24314309 40.60885212 -77.9375 35.3125 C-72.50802786 31.65789245 -68.09225603 27.32109882 -63.625 22.5625 C-62.965 22.8925 -62.305 23.2225 -61.625 23.5625 C-61.13 22.0775 -61.13 22.0775 -60.625 20.5625 C-58.078125 19.09765625 -58.078125 19.09765625 -54.875 17.625 C-51.61380541 16.11890644 -48.8548335 14.74671503 -46.046875 12.49609375 C-41.87888883 9.16842737 -37.89473883 8.32868092 -32.6875 7.625 C-28.08316988 6.90715072 -24.73619908 5.79684733 -20.625 3.5625 C-13.75025866 0.97285384 -7.3170117 0.01604608 0 0 Z " fill="#FDFEFD" transform="translate(1272.625,524.4375)"/>
<path d="M0 0 C0 1.98 0 3.96 0 6 C0.67546875 6.19335938 1.3509375 6.38671875 2.046875 6.5859375 C2.93890625 6.84632813 3.8309375 7.10671875 4.75 7.375 C5.63171875 7.63023437 6.5134375 7.88546875 7.421875 8.1484375 C13.05718343 10.00979695 15.10559272 11.87710787 17.828125 17.12890625 C26.73177448 38.94284748 20.62162965 62.91307416 14.83203125 84.6875 C12.96156286 92.13424738 12.81378002 99.23662423 12.81469727 106.88549805 C12.81250971 108.92843436 12.79431265 110.97083071 12.77539062 113.01367188 C12.77345703 114.31755859 12.77152344 115.62144531 12.76953125 116.96484375 C12.76542236 118.1468335 12.76131348 119.32882324 12.75708008 120.54663086 C13.0241767 124.34369792 13.83710781 127.38918663 15 131 C18.34519427 131.40925249 19.63420585 131.27919057 22.359375 129.19921875 C28.22586014 123.03557505 33.72697163 116.67848534 39 110 C39.721875 109.16339844 40.44375 108.32679688 41.1875 107.46484375 C43.03727067 104.94931511 43.63409264 103.4144477 44.125 100.375 C44.67083399 97.11113551 45.0838746 95.87418809 47 93 C47.103125 92.21625 47.20625 91.4325 47.3125 90.625 C48.26318705 86.99510397 50.27577126 85.53848587 53 83 C56.72416181 79.00333854 58.81300269 75.45425669 60.90234375 70.4296875 C62.46899844 66.9618611 64.43581506 63.78566808 66.4375 60.5546875 C67.63603749 58.5950787 68.77020549 56.59597958 69.875 54.58203125 C71.90324583 51.02686072 74.32074847 47.89886284 77 44.8125 C77.4962085 44.23661133 77.99241699 43.66072266 78.50366211 43.06738281 C97.75209798 21.16526801 97.75209798 21.16526801 107 15 C109.76386445 15.19061134 112.28862602 15.51214032 115 16 C115.78632812 16.1134375 116.57265625 16.226875 117.3828125 16.34375 C118.16398437 16.4778125 118.94515625 16.611875 119.75 16.75 C120.46671875 16.86859375 121.1834375 16.9871875 121.921875 17.109375 C125.09567987 18.46957709 126.24344175 20.0345854 128 23 C128.48875399 25.89631992 128.42492763 28.69688495 128.3125 31.625 C128.30283203 32.388125 128.29316406 33.15125 128.28320312 33.9375 C128.21762023 37.18813058 128.03325883 39.9002235 127 43 C137.93764133 36.65060657 137.93764133 36.65060657 147.6875 28.6875 C153.5951848 23.11868813 161.62461649 19.87786169 169.75 19.4375 C175.93944556 19.85847332 181.75966381 22.21934677 185.9375 26.875 C190.95551521 34.47805334 191.01816196 43.18497072 190 52 C188.34873008 59.02526889 186.02985091 65.43452467 180.0390625 69.7890625 C169.58064516 76 169.58064516 76 166 76 C165.731875 76.5775 165.46375 77.155 165.1875 77.75 C163.93472464 80.12367963 162.86872235 82.06206571 161 84 C158.5 84.5625 158.5 84.5625 156 84 C150.89886907 77.4588369 152.41491701 68.13294239 153.30761719 60.30126953 C154.07756935 54.51248223 155.00943248 48.7547256 156 43 C133.68326857 53.78870206 115.20072027 67.91703324 100 87.66015625 C98 90 98 90 95.5625 91.796875 C92.0931282 94.77968856 90.2464175 98.24308225 88 102.1875 C84.17789326 108.69391489 80.0703548 114.71973595 75.375 120.625 C70.59965096 126.65056876 66.66892164 132.76533699 63.03295898 139.5324707 C60.62507572 143.98909343 57.98652021 147.95011479 54.73828125 151.85546875 C52.71528975 154.35124927 50.94226166 156.97617087 49.125 159.625 C45.14609168 165.08639733 40.62260084 170.8218504 33.79296875 172.5625 C30.34101696 172.76743962 28.32960631 172.24509187 25.5625 170.1875 C21.80395453 164.92553635 22.64061672 158.56060588 23.5 152.4375 C23.7475 151.2309375 23.7475 151.2309375 24 150 C23.46890625 150.27714844 22.9378125 150.55429687 22.390625 150.83984375 C21.68421875 151.20207031 20.9778125 151.56429687 20.25 151.9375 C19.55390625 152.29714844 18.8578125 152.65679688 18.140625 153.02734375 C11.8633508 155.87960885 4.03839805 156.34823273 -2.50390625 154.1640625 C-16.97314595 146.66522175 -23.28398256 132.69472915 -28.28735352 118.02856445 C-28.76652377 116.66459541 -29.28365826 115.31343598 -29.83569336 113.97729492 C-40.34832668 87.00013657 -24.79495839 43.34200114 -13.91210938 18.51855469 C-13.21525941 16.99239048 -12.51832623 15.46626426 -11.82128906 13.94018555 C-10.86936606 11.69139479 -10.35359423 9.53828059 -10 7.125 C-9.42112644 4.24069958 -9.17350831 3.19744049 -7.1875 0.9375 C-4.63247553 -0.15751049 -2.75293162 -0.22941097 0 0 Z " fill="#FDFEFE" transform="translate(1015,445)"/>
<path d="M0 0 C5.73849595 5.22840742 9.68286577 13.44328191 10.22265625 21.19921875 C9.94473315 24.6951988 8.58969879 26.88174469 7 30 C6.41604154 32.24049368 5.95322946 34.47845973 5.52734375 36.75390625 C5 39 5 39 4.015625 41.4296875 C2.94716804 44.13370551 2.38959103 46.71577579 1.8125 49.5625 C-1.20972785 61.81680695 -9.21669721 73.47472797 -19.5625 80.8125 C-24.83299336 83.8349666 -30.88093075 85.30529189 -36.68359375 86.984375 C-39.81661187 87.66025914 -39.81661187 87.66025914 -41 89 C-41.38728201 94.37438723 -40.40802974 98.62392873 -38.4375 103.5625 C-38.1679248 104.25287354 -37.89834961 104.94324707 -37.62060547 105.65454102 C-31.34520397 122.06100722 -31.34520397 122.06100722 -20 135 C-16.73200415 136.13241287 -15.55925265 135.80370221 -12 135 C-6.48635127 131.22048273 -3.77839984 126.80903983 -0.625 121 C-0.12387695 120.09934814 0.37724609 119.19869629 0.89355469 118.27075195 C1.99990843 116.27807701 3.10053836 114.28221647 4.19628906 112.28369141 C6.13344304 108.75706432 8.09266034 105.24328591 10.0546875 101.73046875 C17.37134143 88.60712464 24.49267551 75.43665602 31.01318359 61.89599609 C32.0646468 59.7190366 33.12594924 57.54705412 34.1875 55.375 C34.6515625 54.39696411 34.6515625 54.39696411 35.125 53.39916992 C37.80598802 47.92097019 40.83592776 43.44271483 46 40 C48.33199388 39.92094936 50.66832622 39.91201231 53 40 C53.6796875 41.73828125 53.6796875 41.73828125 54 44 C52.8828125 45.98046875 52.8828125 45.98046875 51.125 48.1875 C47.63221139 52.89149757 44.83794777 57.76166843 42.125 62.9375 C41.73199707 63.68346436 41.33899414 64.42942871 40.93408203 65.19799805 C38.28334285 70.29552869 36.87429089 74.38442107 36.4375 80.1875 C36.35371094 81.27417969 36.26992188 82.36085938 36.18359375 83.48046875 C36.12300781 84.31191406 36.06242188 85.14335938 36 86 C34.515 86.495 34.515 86.495 33 87 C31.19153533 90.49636503 30.39322212 94.2759213 29.45410156 98.07543945 C27.54079825 105.67299589 25.13587324 112.29443333 21.23291016 119.08105469 C17.62148853 125.42676611 14.87972295 132.09428159 12.14550781 138.85668945 C10.25589885 143.43938018 8.50710747 147.38397615 5 151 C3.33927151 151.68132451 1.672233 152.34742127 0 153 C-1.051875 154.2065625 -1.051875 154.2065625 -2.125 155.4375 C-7.77086623 160.46968512 -16.08350725 161.70475694 -23.5234375 161.4921875 C-27.4531337 160.71120687 -30.39689622 158.71785823 -33.69140625 156.5078125 C-36.11695673 154.81400197 -36.11695673 154.81400197 -39.625 153.5625 C-47.07824925 150.11192164 -51.15296183 145.54465116 -54 138 C-54.66 137.34 -55.32 136.68 -56 136 C-58.71436546 133.28563454 -59.58963554 130.55949126 -61 127 C-61.33 126.67 -61.66 126.34 -62 126 C-62.103125 124.9275 -62.20625 123.855 -62.3125 122.75 C-62.68975108 119.01301102 -62.68975108 119.01301102 -64.84375 116.7109375 C-71.14776457 108.78523802 -73.96330657 97.9683826 -74 88 C-74.00692871 87.23445801 -74.01385742 86.46891602 -74.02099609 85.68017578 C-74.06830987 80.11922956 -74.05186288 74.56085299 -74 69 C-73.34 69 -72.68 69 -72 69 C-72.32991943 68.43192627 -72.65983887 67.86385254 -72.99975586 67.27856445 C-74.7332513 63.32964746 -73.95728738 59.39956046 -73.5625 55.1875 C-73.47468262 54.24841797 -73.38686523 53.30933594 -73.29638672 52.34179688 C-72.42737095 44.84189642 -70.25198729 39.03185017 -66.73046875 32.4296875 C-65.00843662 29.01672088 -63.9445231 25.80467092 -62.9375 22.125 C-61.50420645 17.15098553 -59.69765099 13.35497921 -56.625 9.19921875 C-54.92766363 6.97048789 -54.92766363 6.97048789 -53.375 4.33203125 C-49.99536617 -1.08946468 -47.51643898 -4.03835354 -41.2109375 -5.59765625 C-40.48132813 -5.73042969 -39.75171875 -5.86320312 -39 -6 C-37.85144531 -6.27070313 -37.85144531 -6.27070313 -36.6796875 -6.546875 C-23.81024771 -8.72304849 -11.08624921 -6.9556959 0 0 Z " fill="#FDFEFD" transform="translate(783,478)"/>
<path d="M0 0 C4.30944171 2.78318111 6.05834814 6.41364724 7.5234375 11.1953125 C8.33452132 15.96874023 7.99705971 20.73435013 7.71484375 25.546875 C8.05093612 29.61681553 9.19271449 31.12129627 12 34 C16.8031753 33.38564037 20.53112349 31.34893079 24.75 29.125 C29.10275473 26.87026122 33.25157433 24.74082663 38 23.4375 C42.3788689 22.19236361 44.98167751 19.58336467 48.078125 16.328125 C50 15 50 15 52.58984375 15.26171875 C53.38519531 15.50535156 54.18054688 15.74898438 55 16 C55.763125 16.185625 56.52625 16.37125 57.3125 16.5625 C57.869375 16.706875 58.42625 16.85125 59 17 C59.556875 15.7934375 59.556875 15.7934375 60.125 14.5625 C62 12 62 12 64.875 11 C68.69817853 11 70.10972028 11.50029862 73 14 C74.03842565 16.31648799 75.0421975 18.64903024 76 21 C76.99 21.33 77.98 21.66 79 22 C78.71860476 25.65813817 78.43656214 28.31896306 76.4375 31.4375 C72.8762682 33.7203409 70.20493119 33.13348988 66 33 C65.01 33.66 64.02 34.32 63 35 C61.824375 35.2475 60.64875 35.495 59.4375 35.75 C54.89957122 36.79529986 51.49030046 39.01513335 47.58203125 41.4765625 C42.58100579 44.42724318 37.24947155 46.46354768 31.609375 47.80859375 C27.56171706 49.14467132 24.68610084 51.1517039 21.4375 53.8125 C20.89931641 54.23853516 20.36113281 54.66457031 19.80664062 55.10351562 C18.19175555 56.38803913 16.59214467 57.68735684 15 59 C13.96020996 59.68513672 12.92041992 60.37027344 11.84912109 61.07617188 C9.19192843 63.3093058 8.54630017 64.85495604 8.24291992 68.29956055 C8.2088883 69.9949435 8.20648674 71.69116386 8.23046875 73.38671875 C8.21346672 74.73404839 8.21346672 74.73404839 8.19612122 76.1085968 C8.16544934 78.96882279 8.17523215 81.82716556 8.1875 84.6875 C8.17333626 87.55793751 8.15098027 90.42818221 8.12532043 93.29853821 C8.1122676 95.08250285 8.10753986 96.86655131 8.11186218 98.65055847 C8.10744693 104.78510613 8.10744693 104.78510613 7 107 C6.84777027 108.66565749 6.75082785 110.33656496 6.68359375 112.0078125 C6.64169922 112.99394531 6.59980469 113.98007812 6.55664062 114.99609375 C6.51732422 116.02863281 6.47800781 117.06117188 6.4375 118.125 C6.37272461 119.68541016 6.37272461 119.68541016 6.30664062 121.27734375 C6.2003712 123.85142528 6.09833417 126.42560508 6 129 C5.67 128.34 5.34 127.68 5 127 C4.071875 127.103125 3.14375 127.20625 2.1875 127.3125 C-1 127 -1 127 -2.6875 125 C-4.27407131 121.37355129 -5.67246807 117.72973258 -7 114 C-8.42662219 116.85324437 -8.31033868 118.83454549 -8 122 C-7.319375 122.845625 -6.63875 123.69125 -5.9375 124.5625 C-4 127 -4 127 -4.1875 129.6875 C-5 132 -5 132 -6 134 C-6.04619154 136.84077999 -6.04662221 139.66070712 -6 142.5 C-5.86486486 150.72972973 -5.86486486 150.72972973 -7 153 C-7.66 153 -8.32 153 -9 153 C-9 152.34 -9 151.68 -9 151 C-10.65 150.67 -12.3 150.34 -14 150 C-14 149.01 -14 148.02 -14 147 C-13.34 146.67 -12.68 146.34 -12 146 C-12.50729066 142.85479791 -13.35540717 140.07860783 -14.5 137.125 C-16.4066261 131.63650836 -16.54293707 126.10425549 -16.7890625 120.35546875 C-16.95758574 117.67470095 -17.33553905 115.56216143 -18 113 C-18.3321627 107.95576183 -18.51441021 102.97293341 -16.9375 98.125 C-15.9105655 94.70188501 -16.01341615 93.37082816 -17 90 C-17.35780457 88.56340118 -17.71174766 87.12583691 -18.0625 85.6875 C-18.371875 84.470625 -18.68125 83.25375 -19 82 C-26.95830129 81.52612567 -33.09104594 86.80502486 -38.98046875 91.66796875 C-43.91746642 94.92428636 -49.09465932 95.38867966 -54.875 95.375 C-55.58100342 95.37338867 -56.28700684 95.37177734 -57.0144043 95.37011719 C-63.83789424 95.20939765 -68.10857124 93.80380971 -73.0625 89 C-74 87 -74 87 -73.9375 84.875 C-72.65003889 82.30007778 -71.71792214 81.97566436 -69 81 C-67.7625 80.71125 -66.525 80.4225 -65.25 80.125 C-54.57981798 77.52108402 -45.93548557 70.29498331 -37.1875 63.96484375 C-30.14710101 58.90992314 -30.14710101 58.90992314 -26.0625 57.375 C-22.43670787 55.74709333 -21.5188963 54.62847449 -20 51 C-19.033862 46.37199631 -18.81086833 41.83725929 -18.8125 37.125 C-18.80822998 36.38830078 -18.80395996 35.65160156 -18.79956055 34.89257812 C-18.82522909 30.34779232 -19.23014827 26.02945437 -19.97314453 21.54907227 C-21.08067029 14.86168833 -21.52429222 10.30211099 -17.47265625 4.640625 C-12.61627456 -0.7696676 -6.98795674 -1.08397522 0 0 Z " fill="#FCFDFD" transform="translate(874,384)"/>
<path d="M0 0 C0.66 0 1.32 0 2 0 C2.23332031 0.7528125 2.46664063 1.505625 2.70703125 2.28125 C5.96685235 11.77274322 10.93335757 19.12404484 16.734375 27.22265625 C22.34453891 35.10112718 25.52753985 42.6426893 28 52 C28.19335938 52.67417969 28.38671875 53.34835937 28.5859375 54.04296875 C30.52722915 63.2183189 28.69076523 72.51351822 25 81 C23.69011716 82.68515949 22.36104249 84.35588355 21 86 C21 86.66 21 87.32 21 88 C21.66 88 22.32 88 23 88 C23.22816406 87.46246094 23.45632813 86.92492187 23.69140625 86.37109375 C25.39969004 83.2757855 27.63571801 80.72300127 29.9375 78.0625 C32.41890734 75.19100243 34.76074371 72.40723299 36.69140625 69.12109375 C37.33916016 68.07115234 37.33916016 68.07115234 38 67 C38.66 67 39.32 67 40 67 C40.25910156 66.40058594 40.51820312 65.80117188 40.78515625 65.18359375 C46.59705182 54.73713194 62.7103252 51.22884721 73.30371094 48.10302734 C85.12602536 44.74004922 96.62364591 42.36711826 109 43 C108.27554687 43.71027344 107.55109375 44.42054688 106.8046875 45.15234375 C99.56991211 52.49795832 93.72995047 60.04099691 88.71875 69.03515625 C79.0675944 85.68339965 79.0675944 85.68339965 69.890625 88.34375 C68.34636401 88.73951038 66.79933125 89.12457897 65.25 89.5 C59.49513338 90.98579773 54.06318205 92.52383453 48.7265625 95.203125 C44.67648039 97.07239367 40.91153103 97.11777969 36.484375 97.09765625 C35.23398438 97.09443359 33.98359375 97.09121094 32.6953125 97.08789062 C30.74238281 97.07532227 30.74238281 97.07532227 28.75 97.0625 C26.77386719 97.05573242 26.77386719 97.05573242 24.7578125 97.04882812 C21.50516259 97.03704316 18.25260416 97.02059011 15 97 C14.69191406 97.93972656 14.38382813 98.87945312 14.06640625 99.84765625 C13 103 13 103 11.9375 105.4375 C10.78274104 108.59384114 10.39163242 111.67112442 10 115 C8.02 114.34 6.04 113.68 4 113 C6.57341324 103.76491419 6.57341324 103.76491419 8.8125 99.75 C10.29350535 97.05615411 10.29350535 97.05615411 9.39453125 94.24609375 C7.72819415 90.36730906 5.5518919 87.54053002 2.875 84.3125 C1.88276554 83.08051237 0.89189361 81.84742621 -0.09765625 80.61328125 C-0.83266357 79.7018335 -0.83266357 79.7018335 -1.58251953 78.77197266 C-3.62590454 76.21756542 -5.60733749 73.62242898 -7.5625 71 C-8.49255859 69.7625 -8.49255859 69.7625 -9.44140625 68.5 C-12.93109532 62.90250374 -13.79658223 57.44065875 -13 51 C-12.16548065 47.8382901 -11.16986293 44.75732344 -10.14453125 41.65234375 C-8.89124421 37.65294656 -7.88183175 33.64359162 -6.9375 29.5625 C-6.77169434 28.84594238 -6.60588867 28.12938477 -6.43505859 27.39111328 C-5.11246606 21.60231805 -3.88510783 15.79452784 -2.66015625 9.984375 C-1.91184712 6.6014864 -1.02406241 3.30850934 0 0 Z " fill="#2A8B59" transform="translate(1050,271)"/>
<path d="M0 0 C0.8971875 0.309375 0.8971875 0.309375 1.8125 0.625 C2.30765117 6.93817741 2.30765117 6.93817741 -0.125 10.3125 C-0.805625 11.075625 -1.48625 11.83875 -2.1875 12.625 C-2.96583534 14.80714568 -2.96583534 14.80714568 -3.1875 16.625 C-1.5375 16.295 0.1125 15.965 1.8125 15.625 C1.6475 16.285 1.4825 16.945 1.3125 17.625 C0.51716941 22.39698356 0.26460781 26.98132344 1.8125 31.625 C1.94272621 34.33337538 2.02179979 37.02072598 2.05859375 39.73046875 C2.09155165 41.37044765 2.12476295 43.01042148 2.15820312 44.65039062 C2.20543797 47.22628052 2.24984148 49.80215278 2.28930664 52.37817383 C2.32935217 54.870828 2.3808331 57.36305561 2.43359375 59.85546875 C2.4420079 60.61409714 2.45042206 61.37272552 2.45909119 62.15434265 C2.57681536 70.92455415 2.57681536 70.92455415 6.5 78.3125 C6.933125 78.745625 7.36625 79.17875 7.8125 79.625 C7.39144737 84.04605263 7.39144737 84.04605263 5.8125 85.625 C5.91454742 90.24554469 5.91454742 90.24554469 8.25390625 93.93359375 C10.56114289 96.43743703 10.81443823 99.01527437 11.5 102.3125 C11.75136719 103.49199219 12.00273438 104.67148437 12.26171875 105.88671875 C12.44347656 106.79035156 12.62523437 107.69398438 12.8125 108.625 C15.6867358 108.93810528 15.6867358 108.93810528 18.8125 108.625 C20.6197946 107.11709158 20.6197946 107.11709158 21.8125 104.875 C22.55886719 103.62783203 22.55886719 103.62783203 23.3203125 102.35546875 C26.62515679 96.30812279 29.7145577 90.20708017 32.44140625 83.875 C38.82356113 69.07582591 46.31385802 54.88120722 53.8125 40.625 C54.4725 40.625 55.1325 40.625 55.8125 40.625 C57.0625 47.25 57.0625 47.25 54.8125 50.625 C53.90761471 59.7913705 55.17613199 68.15207781 57.125 77.109375 C59.42123968 88.85150973 59.42123968 88.85150973 56.72265625 93.50390625 C55.8328314 94.61554252 54.92274735 95.71129544 53.9921875 96.7890625 C51.72829871 100.31233314 51.90298744 104.53661314 51.8125 108.625 C48.3475 109.12 48.3475 109.12 44.8125 109.625 C44.6475 110.553125 44.4825 111.48125 44.3125 112.4375 C42.2517106 119.75479571 36.36153593 126.58782483 30.8125 131.625 C30.173125 131.74875 29.53375 131.8725 28.875 132 C26.43302221 132.53308228 26.43302221 132.53308228 24.375 135.5625 C21.19126619 139.36745016 19.40856951 140.25087399 14.58984375 140.9453125 C8.57335648 141.37306894 4.47114366 140.19484629 -0.3671875 136.5703125 C-2.96770609 133.79121753 -3.51664429 131.19778808 -4.3125 127.5390625 C-5.4190256 123.85393707 -7.27048338 120.76655062 -9.25 117.5 C-12.21785 112.54850896 -14.0930988 108.29598806 -15.1875 102.625 C-15.744375 101.449375 -16.30125 100.27375 -16.875 99.0625 C-18.94506043 93.64091316 -17.59139314 89.65926168 -15.625 84.4375 C-13.95006395 79.71868978 -14.06876612 75.4720071 -14.21484375 70.51171875 C-14.17776133 66.59687461 -13.33473832 63.35352454 -12.1875 59.625 C-13.1775 59.625 -14.1675 59.625 -15.1875 59.625 C-16.1775 62.265 -17.1675 64.905 -18.1875 67.625 C-19.1775 67.625 -20.1675 67.625 -21.1875 67.625 C-20.8575 62.675 -20.5275 57.725 -20.1875 52.625 C-17.1892825 51.87544562 -14.21813487 51.21429011 -11.1875 50.625 C-11.1875 49.305 -11.1875 47.985 -11.1875 46.625 C-11.8475 46.295 -12.5075 45.965 -13.1875 45.625 C-13.1875 41.005 -13.1875 36.385 -13.1875 31.625 C-12.5275 31.295 -11.8675 30.965 -11.1875 30.625 C-9.5430814 34.9836999 -8.9233872 38.73032481 -8.75 43.375 C-8.39356403 49.27182662 -7.91278673 55.27924525 -5.1875 60.625 C-3.7025 61.12 -3.7025 61.12 -2.1875 61.625 C-2.10642354 58.87440619 -2.04697187 56.12620979 -2 53.375 C-1.97486328 52.59769531 -1.94972656 51.82039062 -1.92382812 51.01953125 C-1.86532554 46.4563295 -2.06122632 44.15760633 -5.1875 40.625 C-4.93624464 37.2330526 -4.30646888 34.11169087 -3.5 30.8125 C-3.04957843 26.21820002 -4.12122161 22.08398234 -5.1875 17.625 C-6.5075 17.625 -7.8275 17.625 -9.1875 17.625 C-9.1875 13.995 -9.1875 10.365 -9.1875 6.625 C-8.1975 6.955 -7.2075 7.285 -6.1875 7.625 C-6.0328125 6.201875 -6.0328125 6.201875 -5.875 4.75 C-5.0713416 1.09700729 -4.00453504 -0.68649172 0 0 Z " fill="#FBFCFC" transform="translate(879.1875,515.375)"/>
<path d="M0 0 C3.28428549 -0.45269881 5.19431923 -0.54240714 7.984375 1.3359375 C20.90573247 16.25839016 29.54602793 35.21151721 31.57421875 54.796875 C31.93219112 57.48987819 32.35213951 59.39238035 33.5 61.8125 C35.20081349 65.42672867 35.78138926 68.74148104 36.375 72.66796875 C37.08917327 75.33272778 38.33965318 76.8301769 40 79 C39.75925978 82.37036311 39.41201979 83.58798021 37 86 C36.51255065 87.35809587 36.08166566 88.73695653 35.6875 90.125 C34.17295691 94.94187156 31.85323493 98.86111771 29 103 C24.54063398 101.63741594 22.60010486 99.84339825 20 96 C19.41796875 93.265625 19.41796875 93.265625 19.1875 90.25 C18.36784271 83.7075103 16.28605403 78.41569746 13.66870117 72.44262695 C11.6653535 67.80518078 10.19037731 63.34910028 9 58.4375 C7.44669944 52.10948859 5.2054448 46.42342935 2.4609375 40.54077148 C-1.55759215 31.88590811 -2.31507486 24.67500948 -2.25 15.25 C-2.25773438 14.11433594 -2.26546875 12.97867188 -2.2734375 11.80859375 C-2.27085937 10.72191406 -2.26828125 9.63523437 -2.265625 8.515625 C-2.26336914 7.52852539 -2.26111328 6.54142578 -2.25878906 5.52441406 C-2 3 -2 3 0 0 Z " fill="#7CB597" transform="translate(593,502)"/>
<path d="M0 0 C5.52560383 4.90696116 9.08342892 10.69407526 9.5625 18.125 C9.23032668 28.32548909 3.35029667 36.51324429 -3.50390625 43.66796875 C-15.63316583 55 -15.63316583 55 -24 55 C-28.7807007 47.01946776 -25.98164331 35.36058713 -24.1171875 26.79296875 C-21.48932862 17.8711122 -17.00931709 6.42786155 -8.5625 1.6875 C-3.13392857 -0.88392857 -3.13392857 -0.88392857 0 0 Z " fill="#7CB598" transform="translate(760,492)"/>
<path d="M0 0 C1.90063506 3.80127011 1.5747671 8.07068622 0.38671875 12.05859375 C-2.05029658 17.56603368 -5.90899646 21.79101991 -11 25 C-16.71759887 27.1414228 -22.09758058 27.38535171 -28.125 27.375 C-29.04917725 27.37411377 -29.97335449 27.37322754 -30.92553711 27.37231445 C-40.01942389 27.21594754 -48.75557599 25.94895054 -56 20 C-55.1005669 14.19223198 -50.49385835 11.31789542 -46 8 C-32.97549194 -0.25362599 -14.77797805 -8.93552161 0 0 Z " fill="#7BB497" transform="translate(1282,551)"/>
<path d="M0 0 C0.66 0 1.32 0 2 0 C2.67467562 1.74692795 3.33944156 3.49768525 4 5.25 C4.556875 6.71179688 4.556875 6.71179688 5.125 8.203125 C6 11 6 11 6 15 C5.34 15 4.68 15 4 15 C5.485 20.94 5.485 20.94 7 27 C6.01 26.67 5.02 26.34 4 26 C4.33 27.98 4.66 29.96 5 32 C4.34 31.34 3.68 30.68 3 30 C3.36310862 35.9975527 4.24126447 41.23672261 6.30078125 46.8828125 C7.29959393 49.90715034 7.66370506 52.83882759 8 56 C8.66 56 9.32 56 10 56 C10.53293835 57.74635165 11.05090663 59.49727652 11.5625 61.25 C11.85253906 62.22453125 12.14257812 63.1990625 12.44140625 64.203125 C12.99249836 66.96243932 12.93789609 68.3912824 12 71 C10.68 71 9.36 71 8 71 C7.22678118 68.01758453 6.58803797 65.02419525 6 62 C6 64.64 6 67.28 6 70 C3.68622795 66.52934193 3.11015527 63.32959845 2.375 59.3125 C2.2409375 58.61060547 2.106875 57.90871094 1.96875 57.18554688 C1.6397283 55.45818294 1.31904688 53.72923409 1 52 C0.855625 53.093125 0.71125 54.18625 0.5625 55.3125 C0 59 0 59 -1 62 C-0.60602665 64.63804589 -0.60602665 64.63804589 0 67 C-1.485 67.495 -1.485 67.495 -3 68 C-2.71125 68.61488281 -2.4225 69.22976563 -2.125 69.86328125 C-1.75375 70.67152344 -1.3825 71.47976563 -1 72.3125 C-0.443125 73.51326172 -0.443125 73.51326172 0.125 74.73828125 C1 77 1 77 1 80 C1.66 80.33 2.32 80.66 3 81 C2.01 81 1.02 81 0 81 C-1.81794595 79.03853201 -3.4079616 77.13322637 -5 75 C-5.44843262 74.40348633 -5.89686523 73.80697266 -6.35888672 73.19238281 C-11.44750469 66.25079305 -14.23606482 59.76111875 -13 51 C-12.15954515 47.84075179 -11.169606 44.75654537 -10.14453125 41.65234375 C-8.89124421 37.65294656 -7.88183175 33.64359162 -6.9375 29.5625 C-6.77169434 28.84594238 -6.60588867 28.12938477 -6.43505859 27.39111328 C-5.11246606 21.60231805 -3.88510783 15.79452784 -2.66015625 9.984375 C-1.91184712 6.6014864 -1.02406241 3.30850934 0 0 Z " fill="#2C8C59" transform="translate(1050,271)"/>
<path d="M0 0 C0.99 0.33 1.98 0.66 3 1 C2.24074219 1.47050781 1.48148438 1.94101562 0.69921875 2.42578125 C-0.79158203 3.35970703 -0.79158203 3.35970703 -2.3125 4.3125 C-3.29863281 4.92738281 -4.28476563 5.54226563 -5.30078125 6.17578125 C-7.51773494 7.67406978 -9.19933744 9.05572632 -11 11 C-14.66666667 14 -14.66666667 14 -17 14 C-17 15.32 -17 16.64 -17 18 C-16.01 17.67 -15.02 17.34 -14 17 C-14 16.01 -14 15.02 -14 14 C-13.01 14 -12.02 14 -11 14 C-11 14.66 -11 15.32 -11 16 C-11.66 16 -12.32 16 -13 16 C-12.505 18.97 -12.505 18.97 -12 22 C-10.02 20.35 -8.04 18.7 -6 17 C-9.39057976 26.59794887 -16.92404079 36.22251591 -26 41 C-28.41669902 41.64604825 -30.85776778 42.20573012 -33.3125 42.6875 C-34.56675781 42.93886719 -35.82101562 43.19023437 -37.11328125 43.44921875 C-38.06589844 43.63097656 -39.01851562 43.81273437 -40 44 C-40.66 42.68 -41.32 41.36 -42 40 C-42.33 40.99 -42.66 41.98 -43 43 C-44.485 42.505 -44.485 42.505 -46 42 C-46.61875 42.495 -47.2375 42.99 -47.875 43.5 C-48.57625 43.995 -49.2775 44.49 -50 45 C-51.67422986 44.70700977 -53.34178227 44.37309899 -55 44 C-57.11683841 44.89163577 -57.11683841 44.89163577 -59 46 C-59.99 46 -60.98 46 -62 46 C-62.495 44.515 -62.495 44.515 -63 43 C-63.66 43.99 -64.32 44.98 -65 46 C-65.66 46 -66.32 46 -67 46 C-67.33 44.68 -67.66 43.36 -68 42 C-67.40574219 41.731875 -66.81148437 41.46375 -66.19921875 41.1875 C-57.5775198 37.11130019 -50.09584845 31.78211907 -42.9375 25.5 C-40 23 -40 23 -38 23 C-38 23.66 -38 24.32 -38 25 C-37.44570312 24.6390625 -36.89140625 24.278125 -36.3203125 23.90625 C-35.59585937 23.4421875 -34.87140625 22.978125 -34.125 22.5 C-33.40570312 22.0359375 -32.68640625 21.571875 -31.9453125 21.09375 C-30 20 -30 20 -28 20 C-28 19.34 -28 18.68 -28 18 C-27.01 18 -26.02 18 -25 18 C-24.7525 17.360625 -24.505 16.72125 -24.25 16.0625 C-23 14 -23 14 -21.1875 13.4375 C-20.465625 13.293125 -19.74375 13.14875 -19 13 C-16.63319878 11.7300091 -14.55585525 10.58074429 -12.69140625 8.6328125 C-10.48263586 6.5005584 -8.07210893 4.92325366 -5.5 3.25 C-4.5409375 2.61578125 -3.581875 1.9815625 -2.59375 1.328125 C-1.7378125 0.88984375 -0.881875 0.4515625 0 0 Z " fill="#2D9057" transform="translate(1147,318)"/>
<path d="M0 0 C-1.08861328 1.06154297 -1.08861328 1.06154297 -2.19921875 2.14453125 C-4.89463133 4.89257392 -7.36109547 7.72126091 -9.8125 10.6875 C-10.23901855 11.20280273 -10.66553711 11.71810547 -11.10498047 12.24902344 C-15.12604954 17.12096209 -19.07792058 22.04810084 -23 27 C-23.66 26.67 -24.32 26.34 -25 26 C-24.505 24.515 -24.505 24.515 -24 23 C-24.66 22.67 -25.32 22.34 -26 22 C-25.67 21.34 -25.34 20.68 -25 20 C-24.34 20 -23.68 20 -23 20 C-23 19.34 -23 18.68 -23 18 C-23.99 18 -24.98 18 -26 18 C-26 18.99 -26 19.98 -26 21 C-27.98 21.99 -27.98 21.99 -30 23 C-29.875 20.75 -29.875 20.75 -29 18 C-23.91891892 14 -23.91891892 14 -21 14 C-20.67 13.01 -20.34 12.02 -20 11 C-17.71484375 9.39453125 -17.71484375 9.39453125 -14.9375 7.8125 C-14.01839844 7.28269531 -13.09929687 6.75289063 -12.15234375 6.20703125 C-11.44207031 5.80871094 -10.73179688 5.41039062 -10 5 C-14.13924818 6.54589723 -17.56224009 8.54978025 -21.23046875 10.9765625 C-23 12 -23 12 -25 12 C-25.226875 12.598125 -25.45375 13.19625 -25.6875 13.8125 C-28.09663072 17.82771787 -31.66393643 18.91598411 -36 20 C-36.33 20.66 -36.66 21.32 -37 22 C-38.7421875 22.88671875 -38.7421875 22.88671875 -40.875 23.6875 C-41.57367187 23.95949219 -42.27234375 24.23148437 -42.9921875 24.51171875 C-45 25 -45 25 -48 24 C-46.35 23.01 -44.7 22.02 -43 21 C-44.65 20.34 -46.3 19.68 -48 19 C-48 19.66 -48 20.32 -48 21 C-49.32 21.33 -50.64 21.66 -52 22 C-52 21.34 -52 20.68 -52 20 C-50.37373596 18.61767557 -48.7074998 17.28062485 -47 16 C-52.65123983 18.3269811 -57.71034995 20.52384342 -62 25 C-63.31963709 26.01800576 -64.65009646 27.02248365 -66 28 C-66 27.34 -66 26.68 -66 26 C-66.66 26 -67.32 26 -68 26 C-67.42267934 22.65154016 -66.51363917 21.24432069 -64 19 C-63.34 18.21625 -62.68 17.4325 -62 16.625 C-47.51383316 3.94960401 -18.62089318 -0.95220477 0 0 Z " fill="#238060" transform="translate(1159,314)"/>
<path d="M0 0 C0.99 0.495 0.99 0.495 2 1 C2.63385922 3.04243528 3.01826504 5.09132519 3.4375 7.1875 C3.623125 7.785625 3.80875 8.38375 4 9 C4.66 9.33 5.32 9.66 6 10 C6.625 13.0625 6.625 13.0625 7 16 C7.66 16 8.32 16 9 16 C9 15.01 9 14.02 9 13 C9.66 13 10.32 13 11 13 C10.67 12.01 10.34 11.02 10 10 C10.99 10 11.98 10 13 10 C13 10.99 13 11.98 13 13 C14.32 13.33 15.64 13.66 17 14 C17 20.27 17 26.54 17 33 C18.32 33.33 19.64 33.66 21 34 C20.83628906 33.15179688 20.67257812 32.30359375 20.50390625 31.4296875 C19.99051555 27.9354469 19.90149261 24.65372426 19.9375 21.125 C19.94652344 19.97257812 19.95554687 18.82015625 19.96484375 17.6328125 C19.97644531 16.76398438 19.98804688 15.89515625 20 15 C23.89236359 20.83854539 23.57773361 27.16216659 23 34 C21.46554977 41.12366533 19.55704747 46.32300019 15 52 C15.13149826 54.75124253 15.13149826 54.75124253 16 57 C14.68 56.67 13.36 56.34 12 56 C11.896875 54.741875 11.79375 53.48375 11.6875 52.1875 C10.9348256 45.46643563 9.45647504 38.85693181 6.375 32.8125 C4.58425182 29.14960601 4.34916333 26.05029459 4 22 C3.34 22 2.68 22 2 22 C2 19.69 2 17.38 2 15 C2.66 15 3.32 15 4 15 C3.71125 14.41992188 3.4225 13.83984375 3.125 13.2421875 C0.94519199 8.65550815 -0.53310477 5.19777151 0 0 Z " fill="#369852" transform="translate(1056,305)"/>
<path d="M0 0 C3.36813194 1.19234928 4.68414874 2.8167303 6.89453125 5.6015625 C7.59191406 6.45105469 8.28929687 7.30054688 9.0078125 8.17578125 C10.86352009 11.40369941 11.01138874 13.24684442 10.58203125 16.9140625 C8.01057879 21.16684925 5.24037937 23.24408865 0.58203125 24.9140625 C-3.49158011 25.43123403 -7.05238657 25.42615582 -10.91796875 23.9765625 C-13.41979796 20.53654734 -13.81206009 17.10637902 -13.41796875 12.9140625 C-11.36769294 7.63789402 -6.23448107 -0.22158091 0 0 Z " fill="#FCFDFC" transform="translate(1391.41796875,553.0859375)"/>
<path d="M0 0 C6.41547099 0.26185596 13.38895827 2.38895827 18 7 C18.71890365 12.99086377 17.18859211 17.0671258 14 22 C12.04965835 24.31151602 10.84190537 24.86305421 7.88671875 25.34375 C5.4547424 25.50296285 3.39030136 25.483333 1 25 C-1.92549903 22.22077592 -3.88594677 19.6471408 -4.16796875 15.57421875 C-4.17441406 14.62160156 -4.18085937 13.66898437 -4.1875 12.6875 C-4.20167969 11.74261719 -4.21585938 10.79773438 -4.23046875 9.82421875 C-3.89425865 5.70422038 -2.93273395 2.93273395 0 0 Z " fill="#FCFDFC" transform="translate(1025,396)"/>
<path d="M0 0 C0.66 0 1.32 0 2 0 C2.67467562 1.74692795 3.33944156 3.49768525 4 5.25 C4.556875 6.71179688 4.556875 6.71179688 5.125 8.203125 C6 11 6 11 6 15 C5.34 15 4.68 15 4 15 C5.485 20.94 5.485 20.94 7 27 C6.01 26.67 5.02 26.34 4 26 C4.33 27.98 4.66 29.96 5 32 C4.34 31.34 3.68 30.68 3 30 C3.36310862 35.9975527 4.24126447 41.23672261 6.30078125 46.8828125 C7.29959393 49.90715034 7.66370506 52.83882759 8 56 C8.66 56 9.32 56 10 56 C11.485 62.435 11.485 62.435 13 69 C8.36064215 66.68032107 6.66863044 57.85494444 5 53 C3.15616626 47.04896491 1.56112245 41.03035354 0 35 C-0.99 35.495 -0.99 35.495 -2 36 C-2.66 35.34 -3.32 34.68 -4 34 C-3.67 34.33 -3.34 34.66 -3 35 C-3.99 35.495 -3.99 35.495 -5 36 C-5 37.98 -5 39.96 -5 42 C-5.66 42 -6.32 42 -7 42 C-6.95875 42.845625 -6.9175 43.69125 -6.875 44.5625 C-7.01364752 48.37530685 -7.6688616 51.42694429 -9 55 C-10.485 55.495 -10.485 55.495 -12 56 C-12.08293697 54.50099109 -12.14004281 53.00055125 -12.1875 51.5 C-12.22230469 50.6646875 -12.25710938 49.829375 -12.29296875 48.96875 C-11.9674154 45.66980938 -11.00677679 43.14971828 -9.78637695 40.09277344 C-8.53434852 36.76076857 -7.77484803 33.34356055 -7 29.875 C-6.83193848 29.14361816 -6.66387695 28.41223633 -6.49072266 27.65869141 C-5.14901764 21.78092763 -3.90387371 15.88353758 -2.66015625 9.984375 C-1.91184712 6.6014864 -1.02406241 3.30850934 0 0 Z " fill="#248060" transform="translate(1050,271)"/>
<path d="M0 0 C0.99 0.495 0.99 0.495 2 1 C2.63385922 3.04243528 3.01826504 5.09132519 3.4375 7.1875 C3.623125 7.785625 3.80875 8.38375 4 9 C4.66 9.33 5.32 9.66 6 10 C6.625 13.0625 6.625 13.0625 7 16 C7.66 16 8.32 16 9 16 C9 15.01 9 14.02 9 13 C9.66 13 10.32 13 11 13 C10.67 12.01 10.34 11.02 10 10 C10.99 10 11.98 10 13 10 C13 10.99 13 11.98 13 13 C14.32 13.33 15.64 13.66 17 14 C17 16.97 17 19.94 17 23 C14.8614515 20.8614515 14.57344937 19.86724686 14 17 C14.66 17 15.32 17 16 17 C16 16.34 16 15.68 16 15 C15.01 15 14.02 15 13 15 C13 19.62 13 24.24 13 29 C11 25 11 25 11 23 C10.34 23 9.68 23 9 23 C9 25.83967231 9.40267181 28.23735711 10 31 C7 31 7 31 5 30 C4.40644386 27.35139573 4.25790731 24.70802678 4 22 C3.34 22 2.68 22 2 22 C2 19.69 2 17.38 2 15 C2.66 15 3.32 15 4 15 C3.71125 14.41992188 3.4225 13.83984375 3.125 13.2421875 C0.94519199 8.65550815 -0.53310477 5.19777151 0 0 Z " fill="#44A74A" transform="translate(1056,305)"/>
<path d="M0 0 C-0.34879632 3.25543229 -1.02133261 4.01873107 -3.5625 6.25 C-4.366875 6.8275 -5.17125 7.405 -6 8 C-6 7.34 -6 6.68 -6 6 C-6.66 6 -7.32 6 -8 6 C-8 6.66 -8 7.32 -8 8 C-8.66 8.474375 -9.32 8.94875 -10 9.4375 C-10.99 10.2109375 -10.99 10.2109375 -12 11 C-12 11.99 -12 12.98 -12 14 C-13.375 15.6875 -13.375 15.6875 -15 17 C-15.66 17 -16.32 17 -17 17 C-17.66 17.99 -18.32 18.98 -19 20 C-22.125 20.6875 -22.125 20.6875 -25 21 C-25 21.66 -25 22.32 -25 23 C-28.63423209 25.32590854 -31.77088331 25.16265833 -36 25 C-32.37464179 21.82781157 -28.48849722 20.57097403 -24 19 C-24 18.34 -24 17.68 -24 17 C-23.34964186 15.65863633 -22.6837045 14.32467746 -22 13 C-22 12.67 -22 12.34 -22 12 C-22.99 11.67 -23.98 11.34 -25 11 C-20.25 7 -20.25 7 -18 7 C-18 7.66 -18 8.32 -18 9 C-17.44570312 8.6390625 -16.89140625 8.278125 -16.3203125 7.90625 C-15.59585937 7.4421875 -14.87140625 6.978125 -14.125 6.5 C-13.40570312 6.0359375 -12.68640625 5.571875 -11.9453125 5.09375 C-10 4 -10 4 -8 4 C-8 3.34 -8 2.68 -8 2 C-5.09399739 0.74335022 -3.20395416 0 0 0 Z " fill="#43A94A" transform="translate(1127,334)"/>
<path d="M0 0 C0.33 0.66 0.66 1.32 1 2 C0.360625 2.598125 -0.27875 3.19625 -0.9375 3.8125 C-3.20310389 5.90810337 -3.20310389 5.90810337 -4 9 C-3.01 9.33 -2.02 9.66 -1 10 C-0.34 9.01 0.32 8.02 1 7 C2.9453125 6.05078125 2.9453125 6.05078125 5.125 5.3125 C5.84945313 5.06113281 6.57390625 4.80976563 7.3203125 4.55078125 C7.87460938 4.36902344 8.42890625 4.18726563 9 4 C9 4.99 9 5.98 9 7 C8.01 7 7.02 7 6 7 C6 7.66 6 8.32 6 9 C5.34 9.66 4.68 10.32 4 11 C4.66 11.33 5.32 11.66 6 12 C6 12.66 6 13.32 6 14 C-0.60576297 19.87935604 -7.55100485 24.30658219 -16 27 C-16.99 27.33 -17.98 27.66 -19 28 C-18.505 26.515 -18.505 26.515 -18 25 C-16.35 24.67 -14.7 24.34 -13 24 C-12.938125 23.39414062 -12.87625 22.78828125 -12.8125 22.1640625 C-12 20 -12 20 -9.75 18.5859375 C-8.38875 17.98652344 -8.38875 17.98652344 -7 17.375 C-3.28534881 15.95707166 -3.28534881 15.95707166 -1 13 C-4.37817425 12.15545644 -6.67465243 11.89155081 -10 13 C-9.01 11.02 -8.02 9.04 -7 7 C-6.34 7 -5.68 7 -5 7 C-4.731875 6.401875 -4.46375 5.80375 -4.1875 5.1875 C-3.01506533 3.02775192 -1.80630718 1.64209744 0 0 Z " fill="#389B50" transform="translate(1095,331)"/>
<path d="M0 0 C2.29946417 3.44919626 2.80769035 6.1381022 3.625 10.1875 C3.88539062 11.45980469 4.14578125 12.73210937 4.4140625 14.04296875 C4.60742188 15.01878906 4.80078125 15.99460937 5 17 C5 15.35 5 13.7 5 12 C5.99 12.66 6.98 13.32 8 14 C8 14.99 8 15.98 8 17 C8.33 17.66 8.66 18.32 9 19 C9 19.99 9 20.98 9 22 C10.32 21.67 11.64 21.34 13 21 C13.66 23.31 14.32 25.62 15 28 C14.34 28.33 13.68 28.66 13 29 C12.67 28.34 12.34 27.68 12 27 C11.34 27 10.68 27 10 27 C10.66 30.3 11.32 33.6 12 37 C10.35 36.34 8.7 35.68 7 35 C7 33.68 7 32.36 7 31 C6.34 31 5.68 31 5 31 C4.89042969 30.42894531 4.78085938 29.85789062 4.66796875 29.26953125 C3.6900437 24.26859744 2.59330723 19.3232905 1.375 14.375 C0.20578964 9.41026254 -0.29893945 5.08197064 0 0 Z " fill="#399F4E" transform="translate(1050,320)"/>
<path d="M0 0 C0.99 0.33 1.98 0.66 3 1 C2.24074219 1.47050781 1.48148438 1.94101562 0.69921875 2.42578125 C-0.29464844 3.04839844 -1.28851562 3.67101562 -2.3125 4.3125 C-3.29863281 4.92738281 -4.28476563 5.54226563 -5.30078125 6.17578125 C-7.52411476 7.67838147 -9.17239144 9.07620151 -11 11 C-16.6 15 -16.6 15 -19 15 C-19 16.32 -19 17.64 -19 19 C-18.34 19.33 -17.68 19.66 -17 20 C-17.8125 21.9375 -17.8125 21.9375 -19 24 C-19.99 24.33 -20.98 24.66 -22 25 C-21.67 25.99 -21.34 26.98 -21 28 C-23.31 29.32 -25.62 30.64 -28 32 C-28.33 31.34 -28.66 30.68 -29 30 C-27.35 29.34 -25.7 28.68 -24 28 C-24.99 28 -25.98 28 -27 28 C-27.99 28 -28.98 28 -30 28 C-30 28.66 -30 29.32 -30 30 C-30.66 29.67 -31.32 29.34 -32 29 C-32 28.01 -32 27.02 -32 26 C-30.68 25.34 -29.36 24.68 -28 24 C-28 23.34 -28 22.68 -28 22 C-27.401875 21.855625 -26.80375 21.71125 -26.1875 21.5625 C-24.43849596 21.1127561 -22.71322977 20.57107659 -21 20 C-20.26676204 17.98491642 -20.26676204 17.98491642 -20 16 C-21.65 16.66 -23.3 17.32 -25 18 C-24.25 16.0625 -24.25 16.0625 -23 14 C-21.1875 13.4375 -21.1875 13.4375 -19 13 C-16.63319878 11.7300091 -14.55585525 10.58074429 -12.69140625 8.6328125 C-10.48263586 6.5005584 -8.07210893 4.92325366 -5.5 3.25 C-4.06140625 2.29867188 -4.06140625 2.29867188 -2.59375 1.328125 C-1.7378125 0.88984375 -0.881875 0.4515625 0 0 Z " fill="#43A74B" transform="translate(1147,318)"/>
<path d="M0 0 C-0.495 0.598125 -0.99 1.19625 -1.5 1.8125 C-3.28276418 3.97029994 -3.28276418 3.97029994 -3 7 C-5.72013915 8.97828302 -8.6007701 10.27743881 -11.6875 11.5625 C-15.00688437 12.76210668 -15.00688437 12.76210668 -17 15 C-17.99 15 -18.98 15 -20 15 C-20.33 15.99 -20.66 16.98 -21 18 C-21.66 17.01 -22.32 16.02 -23 15 C-23.66 15.99 -24.32 16.98 -25 18 C-25.66 18 -26.32 18 -27 18 C-27.33 16.68 -27.66 15.36 -28 14 C-27.40574219 13.731875 -26.81148437 13.46375 -26.19921875 13.1875 C-20.10837027 10.30784535 -14.87279059 6.88695639 -9.54296875 2.76953125 C-3.23699422 -1.61849711 -3.23699422 -1.61849711 0 0 Z " fill="#379E4F" transform="translate(1107,346)"/>
<path d="M0 0 C1.32 0 2.64 0 4 0 C4.34700907 5.66781474 3.52575819 9.04562817 1 14 C0.34 14.66 -0.32 15.32 -1 16 C-3.625 15.625 -3.625 15.625 -6 15 C-6 10.86602932 -5.42079548 9.37642646 -3.5625 5.8125 C-2.88380859 4.49185547 -2.88380859 4.49185547 -2.19140625 3.14453125 C-1 1 -1 1 0 0 Z " fill="#F7FAF9" transform="translate(953,514)"/>
<path d="M0 0 C0.33 0 0.66 0 1 0 C1.07516846 0.589021 1.15033691 1.17804199 1.2277832 1.78491211 C1.58011879 4.50372845 1.94622804 7.22052743 2.3125 9.9375 C2.43044922 10.86369141 2.54839844 11.78988281 2.66992188 12.74414062 C3.40001956 18.07946988 4.46201175 22.96951653 6.3359375 28.0234375 C7.33240096 30.98938169 7.66971031 33.89527696 8 37 C8.66 37 9.32 37 10 37 C10.99 41.29 11.98 45.58 13 50 C9.87648232 48.43824116 9.32652089 45.3593696 8.125 42.25 C7.73018433 41.24259766 7.73018433 41.24259766 7.32739258 40.21484375 C2.04872258 26.5292837 -0.18316536 14.67358056 0 0 Z " fill="#196E55" transform="translate(1050,290)"/>
<path d="M0 0 C2.475 0.495 2.475 0.495 5 1 C3.625 2.5 3.625 2.5 2 4 C1.34 4 0.68 4 0 4 C-0.20625 4.7425 -0.4125 5.485 -0.625 6.25 C-2.44843271 9.89686542 -4.39549224 11.16240781 -8 13 C-10.75 12.6875 -10.75 12.6875 -13 12 C-13.99 12.495 -13.99 12.495 -15 13 C-14.7734375 11.171875 -14.7734375 11.171875 -14 9 C-12.0390625 7.515625 -12.0390625 7.515625 -9.625 6.25 C-8.83351563 5.82203125 -8.04203125 5.3940625 -7.2265625 4.953125 C-5 4 -5 4 -2 4 C-2 3.34 -2 2.68 -2 2 C-1.34 2 -0.68 2 0 2 C0 1.34 0 0.68 0 0 Z " fill="#319256" transform="translate(1135,320)"/>
<path d="M0 0 C-2.64377735 6.66885409 -9.98165983 10.5556409 -16.18359375 13.5234375 C-18.22024178 14.36250598 -20.26694832 15.17769099 -22.32421875 15.96484375 C-24.53186259 16.81889574 -26.54977912 17.74902858 -28.625 18.875 C-29.40875 19.24625 -30.1925 19.6175 -31 20 C-31.66 19.67 -32.32 19.34 -33 19 C-26.57717312 14.1130665 -19.83503455 10.49501347 -12.3125 7.5625 C-8.74617735 5.88027234 -6.32964672 3.88669291 -3.48046875 1.20703125 C-2 0 -2 0 0 0 Z " fill="#207853" transform="translate(1101,345)"/>
<path d="M0 0 C0.99 0.33 1.98 0.66 3 1 C2.24074219 1.47050781 1.48148438 1.94101562 0.69921875 2.42578125 C-0.29464844 3.04839844 -1.28851562 3.67101562 -2.3125 4.3125 C-3.29863281 4.92738281 -4.28476563 5.54226563 -5.30078125 6.17578125 C-7.52411476 7.67838147 -9.17239144 9.07620151 -11 11 C-16.6 15 -16.6 15 -19 15 C-19.061875 15.928125 -19.12375 16.85625 -19.1875 17.8125 C-20 21 -20 21 -22.5625 22.875 C-23.7690625 23.431875 -23.7690625 23.431875 -25 24 C-24.34 22.68 -23.68 21.36 -23 20 C-22.34 20 -21.68 20 -21 20 C-20.67 18.68 -20.34 17.36 -20 16 C-21.65 16.66 -23.3 17.32 -25 18 C-24.25 16.0625 -24.25 16.0625 -23 14 C-21.1875 13.4375 -21.1875 13.4375 -19 13 C-16.63319878 11.7300091 -14.55585525 10.58074429 -12.69140625 8.6328125 C-10.48263586 6.5005584 -8.07210893 4.92325366 -5.5 3.25 C-4.06140625 2.29867188 -4.06140625 2.29867188 -2.59375 1.328125 C-1.7378125 0.88984375 -0.881875 0.4515625 0 0 Z " fill="#40A04E" transform="translate(1147,318)"/>
<path d="M0 0 C0.66 0.33 1.32 0.66 2 1 C1.175 1.763125 0.35 2.52625 -0.5 3.3125 C-3.34055197 5.75434142 -3.34055197 5.75434142 -3 9 C-4.375 10.6875 -4.375 10.6875 -6 12 C-6.66 12 -7.32 12 -8 12 C-8.99 13.485 -8.99 13.485 -10 15 C-10.66 15 -11.32 15 -12 15 C-12 13.68 -12 12.36 -12 11 C-11.34 11 -10.68 11 -10 11 C-10 9.68 -10 8.36 -10 7 C-8.906875 6.401875 -7.81375 5.80375 -6.6875 5.1875 C-4.08925871 3.70955303 -1.95650507 2.30177067 0 0 Z " fill="#56B345" transform="translate(1118,339)"/>
<path d="M0 0 C3.89744504 5.84616757 3.49190451 12.15432894 3 19 C2.22057563 22.74758114 1.20142899 26.36710758 0 30 C-0.66 28.68 -1.32 27.36 -2 26 C-1.34 26 -0.68 26 0 26 C0 25.01 0 24.02 0 23 C-0.66 22.67 -1.32 22.34 -2 22 C-1.34 22 -0.68 22 0 22 C0 14.74 0 7.48 0 0 Z " fill="#44A156" transform="translate(1076,320)"/>
<path d="M0 0 C0.12375 0.61875 0.2475 1.2375 0.375 1.875 C0.87197356 4.19120832 0.87197356 4.19120832 3 6 C3.38286803 9.73296326 3.14915785 10.77626323 1 14 C-0.32 14 -1.64 14 -3 14 C-2.88617347 12.04098546 -2.75858875 10.0827662 -2.625 8.125 C-2.55539062 7.03445313 -2.48578125 5.94390625 -2.4140625 4.8203125 C-2 2 -2 2 0 0 Z " fill="#27875C" transform="translate(1072,341)"/>
<path d="M0 0 C0.33 0.66 0.66 1.32 1 2 C0.360625 2.598125 -0.27875 3.19625 -0.9375 3.8125 C-3.20310389 5.90810337 -3.20310389 5.90810337 -4 9 C-2.68 9 -1.36 9 0 9 C0.625 10.875 0.625 10.875 1 13 C0.34 13.66 -0.32 14.32 -1 15 C-1 14.34 -1 13.68 -1 13 C-4.37817425 12.15545644 -6.67465243 11.89155081 -10 13 C-9.01 11.02 -8.02 9.04 -7 7 C-6.34 7 -5.68 7 -5 7 C-4.731875 6.401875 -4.46375 5.80375 -4.1875 5.1875 C-3.01506533 3.02775192 -1.80630718 1.64209744 0 0 Z " fill="#32925A" transform="translate(1095,331)"/>
<path d="M0 0 C0.99 0.33 1.98 0.66 3 1 C3.05416188 2.60379341 3.09286638 4.20811406 3.125 5.8125 C3.14820313 6.70582031 3.17140625 7.59914063 3.1953125 8.51953125 C3 11 3 11 1 14 C0.34 14 -0.32 14 -1 14 C-1.02685938 11.85423363 -1.04633088 9.70837355 -1.0625 7.5625 C-1.07410156 6.36753906 -1.08570313 5.17257812 -1.09765625 3.94140625 C-1 1 -1 1 0 0 Z " fill="#7EB699" transform="translate(876,583)"/>
<path d="M0 0 C2.95813066 4.43719599 3.1143157 7.45411417 3.0625 12.6875 C3.05347656 13.86699219 3.04445313 15.04648437 3.03515625 16.26171875 C3.02355469 17.16535156 3.01195312 18.06898438 3 19 C-0.05510526 16.60773809 -0.93707221 15.5051543 -1.42578125 11.58203125 C-1.36970703 9.71611328 -1.36970703 9.71611328 -1.3125 7.8125 C-1.27576172 5.93498047 -1.27576172 5.93498047 -1.23828125 4.01953125 C-1 1 -1 1 0 0 Z " fill="#EFF6F2" transform="translate(867,546)"/>
<path d="M0 0 C0 4.08481881 -1.70119331 5.84704653 -4 9.1875 C-4.7425 10.27417969 -5.485 11.36085938 -6.25 12.48046875 C-6.8275 13.31191406 -7.405 14.14335937 -8 15 C-8.66 14.67 -9.32 14.34 -10 14 C-9.649375 13.2575 -9.29875 12.515 -8.9375 11.75 C-7.91486175 8.75026114 -8.22008679 7.92467453 -9 5 C-8.34 4.01 -7.68 3.02 -7 2 C-6.34 2 -5.68 2 -5 2 C-4.67 2.99 -4.34 3.98 -4 5 C-2.68 3.35 -1.36 1.7 0 0 Z " fill="#39915C" transform="translate(1140,335)"/>
<path d="M0 0 C0.33 0 0.66 0 1 0 C1.12117188 0.61488281 1.24234375 1.22976563 1.3671875 1.86328125 C1.53476563 2.67152344 1.70234375 3.47976563 1.875 4.3125 C2.03742188 5.11300781 2.19984375 5.91351563 2.3671875 6.73828125 C2.94478999 9.25301118 2.94478999 9.25301118 5 12 C5 12.99 5 13.98 5 15 C4.34 15 3.68 15 3 15 C2.67 15.66 2.34 16.32 2 17 C-1.10359396 11.95665982 -1.60014069 7.77058356 -1 2 C-0.67 1.34 -0.34 0.68 0 0 Z " fill="#339851" transform="translate(1055,305)"/>
<path d="M0 0 C1.65 0.33 3.3 0.66 5 1 C4.67 3.97 4.34 6.94 4 10 C2.02 9.34 0.04 8.68 -2 8 C-1.34 5.36 -0.68 2.72 0 0 Z " fill="#41995F" transform="translate(1056,376)"/>
<path d="M0 0 C0.66 0 1.32 0 2 0 C2.33 1.32 2.66 2.64 3 4 C5.64 3.01 8.28 2.02 11 1 C11 1.99 11 2.98 11 4 C7.7 5.32 4.4 6.64 1 8 C-1 4 -1 4 -0.625 1.75 C-0.41875 1.1725 -0.2125 0.595 0 0 Z " fill="#41A150" transform="translate(1110,350)"/>
<path d="M0 0 C0.33 1.32 0.66 2.64 1 4 C1.33 4.99 1.66 5.98 2 7 C2.66 7.33 3.32 7.66 4 8 C4 8.99 4 9.98 4 11 C1.69 11 -0.62 11 -3 11 C-2.01 7.37 -1.02 3.74 0 0 Z " fill="#2C8461" transform="translate(1068,357)"/>
<path d="M0 0 C0.33 0 0.66 0 1 0 C1 1.65 1 3.3 1 5 C1.66 5 2.32 5 3 5 C3.99 9.29 4.98 13.58 6 18 C3.00502811 16.50251406 2.60492085 14.28663353 1.3125 11.25 C0.85488281 10.20328125 0.39726563 9.1565625 -0.07421875 8.078125 C-1.04881133 4.83770747 -0.97543843 3.19234395 0 0 Z " fill="#247F53" transform="translate(1057,322)"/>
<path d="M0 0 C0.99 0.33 1.98 0.66 3 1 C2.24074219 1.47050781 1.48148438 1.94101562 0.69921875 2.42578125 C-0.29464844 3.04839844 -1.28851562 3.67101562 -2.3125 4.3125 C-3.29863281 4.92738281 -4.28476563 5.54226563 -5.30078125 6.17578125 C-7.50172035 7.66324661 -9.23328988 9.0403386 -11 11 C-11.33 10.01 -11.66 9.02 -12 8 C-10.07053972 6.63292504 -8.13289523 5.28155046 -6.1875 3.9375 C-5.10855469 3.18339844 -4.02960938 2.42929687 -2.91796875 1.65234375 C-1.95503906 1.10707031 -0.99210937 0.56179688 0 0 Z " fill="#319251" transform="translate(1147,318)"/>
<path d="M0 0 C0.66 0 1.32 0 2 0 C2.66 2.64 3.32 5.28 4 8 C3.01 7.67 2.02 7.34 1 7 C0.01 8.98 -0.98 10.96 -2 13 C-3.18414294 9.44757118 -2.69535532 8.30169438 -1.5625 4.8125 C-1.27503906 3.91144531 -0.98757813 3.01039063 -0.69140625 2.08203125 C-0.46324219 1.39496094 -0.23507812 0.70789063 0 0 Z " fill="#32866E" transform="translate(1050,271)"/>
<path d="M0 0 C2 3 2 3 1.625 5.1875 C1.41875 5.785625 1.2125 6.38375 1 7 C2.65 7.33 4.3 7.66 6 8 C6 8.33 6 8.66 6 9 C4.02 9.33 2.04 9.66 0 10 C-0.33 8.35 -0.66 6.7 -1 5 C-2.32 4.67 -3.64 4.34 -5 4 C-4.34 3.34 -3.68 2.68 -3 2 C-2.01 2 -1.02 2 0 2 C0 1.34 0 0.68 0 0 Z " fill="#3C9A58" transform="translate(1107,352)"/>
<path d="M0 0 C2.0625 0.4375 2.0625 0.4375 4 1 C3.75 2.875 3.75 2.875 3 5 C0.9375 6.25 0.9375 6.25 -1 7 C-1.04254356 5.00045254 -1.04080783 2.99958364 -1 1 C-0.67 0.67 -0.34 0.34 0 0 Z " fill="#F6FAF8" transform="translate(969,491)"/>
<path d="M0 0 C-0.34879632 3.25543229 -1.02133261 4.01873107 -3.5625 6.25 C-4.366875 6.8275 -5.17125 7.405 -6 8 C-6.36458333 3.50347222 -6.36458333 3.50347222 -4.6875 1.1875 C-3 0 -3 0 0 0 Z " fill="#55B348" transform="translate(1127,334)"/>
<path d="M0 0 C0.33 0.99 0.66 1.98 1 3 C-1.8125 5.0625 -1.8125 5.0625 -5 7 C-5.99 6.67 -6.98 6.34 -8 6 C-7.34 6 -6.68 6 -6 6 C-6 5.01 -6 4.02 -6 3 C-4.02 2.01 -2.04 1.02 0 0 Z " fill="#268457" transform="translate(1132,326)"/>
<path d="M0 0 C1.65 0 3.3 0 5 0 C5 1.32 5 2.64 5 4 C3.35 4 1.7 4 0 4 C0 2.68 0 1.36 0 0 Z " fill="#82B89C" transform="translate(922,614)"/>
<path d="M0 0 C0.33 0 0.66 0 1 0 C0.67 4.29 0.34 8.58 0 13 C-2.278495 8.44301001 -1.98806307 6.85049146 -1 2 C-0.67 1.34 -0.34 0.68 0 0 Z " fill="#176E5C" transform="translate(1051,276)"/>
<path d="M0 0 C2.64 0 5.28 0 8 0 C5.23776722 2.76223278 2.79293383 2.57856291 -1 3 C-0.67 2.01 -0.34 1.02 0 0 Z " fill="#33905D" transform="translate(1094,364)"/>
</svg>
